<?xml version="1.0" encoding="utf-8"?>
<!-- Generator: Adobe Illustrator 19.0.0, SVG Export Plug-In . SVG Version: 6.00 Build 0)  -->
<svg version="1.1" id="Layer_1" xmlns="http://www.w3.org/2000/svg" xmlns:xlink="http://www.w3.org/1999/xlink" x="0px" y="0px"
	 viewBox="0 0 185 185" enable-background="new 0 0 185 185" xml:space="preserve">
<g id="XMLID_157_">
	<g id="XMLID_308_">
		<g id="XMLID_436_">
			
				<circle id="XMLID_8_" fill="none" stroke="#FFFFFF" stroke-miterlimit="10" stroke-dasharray="6.0354047,6.0354047" cx="92.4999847" cy="92.3477325" r="73"/>
		</g>
		<g id="XMLID_434_">
			<path id="XMLID_435_" fill="#FEC829" d="M95.2913055,17.437767c-2.1044846-3.0546627-2.3393478-6.8406916-0.9580536-10.0077114
				c0.1477203-0.3386908-0.1681213-0.6964173-0.5287628-0.6159735c-1.3594971,0.3032489-2.681839,0.8871326-3.8811569,1.7714939
				c-4.3150635,3.1818819-5.4642563,9.3532572-2.5804214,13.8729563c3.1657639,4.9615517,9.783699,6.2718315,14.5890579,2.9612236
				c1.125824-0.7756233,2.0482712-1.7353954,2.7578278-2.8102837c0.2028351-0.3072662-0.0211105-0.7284222-0.3888779-0.7111244
				C100.8496399,22.0606689,97.3957596,20.4923916,95.2913055,17.437767z"/>
		</g>
		<g id="XMLID_393_">
			<path id="XMLID_433_" fill="#FEC829" d="M86.6243362,168.2084656c-0.0660782-0.1612244-0.1446304-0.1826782-0.3136444-0.094101
				c-0.6928177,0.3630371-1.4303284,0.5490112-2.2201691,0.4911041c-0.2155533-0.0158081-0.4153214-0.0994415-0.6273804-0.1262665
				c-0.6421738-0.0812225-1.2327347,0.0672913-1.7830353,0.3987732c-0.1882401,0.1133728-0.3796234,0.2215424-0.5695648,0.332077
				c0.0106812-0.0437775,0.0213623-0.0875397,0.0320435-0.1313019l-0.0021286,0.0031128
				c0.1835938-0.057373,0.2785187-0.2231903,0.4060059-0.3448029c0.564888-0.5389099,1.220314-0.7840881,2.0007858-0.6572876
				c0.1903915,0.0309296,0.377655,0.0548248,0.5737076,0.0218201c0.5802383-0.0976715,1.0996475-0.3376617,1.5943527-0.6443634
				c0.3271408-0.2028198,0.3486633-0.262146,0.2238541-0.6368713c-0.0647964-0.1945343-0.119751-0.392334-0.1791458-0.5886536
				c-0.0024033-0.1838837-0.0977783-0.2495117-0.2787476-0.2793732c-2.3297424-0.3843384-4.6580429-0.7774353-6.9866714-1.1685333
				c-0.0245819-0.0041199-0.0548248-0.0011139-0.0605774-0.0377045c0.0238037-0.0459747,0.0661392-0.0311584,0.1039963-0.0310516
				c0.0780334,0.0577698,0.1681442,0.0317535,0.2524567,0.0318146c2.1839752,0.0015564,4.3679581,0.0012207,6.5519409,0.0011597
				c0.0467453,0,0.093544-0.0018921,0.1402359-0.0004425c0.0853195,0.002655,0.1262207-0.0404968,0.117691-0.1223297
				c-0.0391846-0.3760529,0.0953903-0.7388763,0.0825424-1.1127014c0.1015625-0.2339478,0.0998764-0.2289886-0.131897-0.3074951
				c-0.7660904-0.2595062-1.5179138-0.6052094-1.9450836-1.3022003c-0.5709305-0.9315491-1.3801727-1.3929749-2.4091797-1.5689087
				c-0.0522995-0.0089417-0.1041489-0.0238495-0.1541138-0.0418243c-0.0330353-0.0118713-0.0114059-0.0306702,0.0055847-0.0364685
				c0.018074-0.0061646,0.0391235-0.0036163,0.0588379-0.0048676c0.2680893,0.0136261,0.5363235,0.0401611,0.8043213,0.0379639
				c0.4402084-0.0036011,0.8221741,0.1613312,1.170929,0.4009552c0.250351,0.1719971,0.4576111,0.3903809,0.635498,0.6499176
				c0.2135315,0.3115387,0.5488205,0.5001221,0.8974838,0.6456299c0.418045,0.1744537,0.8352585,0.3557129,1.3016891,0.3545074
				c0.0743103-0.0001831,0.1450653,0.0042419,0.1860962-0.0815125c0.1234131-0.2579193,0.251564-0.5135651,0.3778687-0.7700958
				c0.1401901-0.1212158,0.140564-0.2288208,0.0257416-0.388916c-1.2770996-1.7805939-2.5452271-3.567627-3.8145599-5.3537903
				c-0.0574646-0.0808716-0.130722-0.1528015-0.1593628-0.2522583c0.0432892-0.0135956,0.0725555,0.0015259,0.1047134,0.0344391
				c0.1420593,0.145462,0.289093,0.2860413,0.4323654,0.4303284c0.614357,0.6186981,1.2272263,1.2388763,1.842186,1.8569794
				c0.4831009,0.4855652,0.967598,0.9697571,1.4535828,1.4524536c0.0942154,0.0935822,0.2139969,0.1650238,0.294426,0.268158
				c0.1985474,0.2546082,0.4484253,0.4575653,0.6654053,0.6929626c0.0682678,0.0740509,0.1363449,0.0774078,0.2040482,0.0011597
				c0.2543335-0.2864075,0.5746536-0.4924927,0.876442-0.7211304c0.1583176-0.0681305,0.1824875-0.1439056,0.0922852-0.3149872
				c-0.3648529-0.6919708-0.548851-1.4301453-0.491333-2.2198792c0.0156937-0.2154694,0.0985947-0.4152069,0.1258545-0.6272125
				c0.0816803-0.6350861-0.0660172-1.2194061-0.3872833-1.7661591c-0.114624-0.1950836-0.2528839-0.3763885-0.3422318-0.5862427
				c0.1874008,0.1208496,0.3239822,0.2964172,0.4786224,0.4515533c0.5198517,0.5215302,0.7498398,1.146698,0.6528549,1.8841858
				c-0.0181656,0.1381683-0.0469666,0.2784271-0.0392151,0.4159393c0.0450287,0.7988281,0.3735275,1.4844208,0.8624115,2.1026917
				c0.0611801,0.0773621,0.1500092,0.1090546,0.2323608,0.063736c0.2489243-0.1369781,0.5436707-0.1328278,0.7914734-0.2684021
				c0.1684189-0.0064545,0.246933-0.0812683,0.2764664-0.2610168c0.3092728-1.8821106,0.6277695-3.7627106,0.9453354-5.6434631
				c0.0809708-0.4795532,0.1676865-0.9581451,0.2517624-1.4371796c0.0029831,0.3675232,0.0084,0.7350464,0.0085602,1.1025848
				c0.0008469,1.9451599,0.000267,3.8903198,0.0007172,5.8354645c0.0000153,0.0800476,0.0053558,0.16008,0.0082016,0.2401123
				c0.0001831,0.376358,0.0003586,0.7527161,0.0005417,1.1290741c0.000145,0.8301239,0.0002899,1.6602631,0.0004349,2.4904022
				c-0.0029602,0.0666962-0.0084839,0.1333771-0.0084915,0.2000732c-0.0002823,2.4821777-0.0001526,4.9643555,0.0004425,7.4465332
				c0.0000229,0.1001587,0.0051346,0.2003326,0.0078735,0.3004913c-0.0050659,0.0137482-0.0101395,0.0274963-0.015213,0.0412292
				c-1.2605743,0.1819-2.4978333,0.0946808-3.7437973-0.3741608c0.0811005,0.1751404,0.2561188,0.1453552,0.2939301,0.2745667
				c-0.6826248,0.4806519-1.366806,0.9591217-2.0475464,1.4424438c-1.2313232,0.8742065-2.4605484,1.7513885-3.6909943,2.6268463
				c-0.0323181,0.022995-0.0686111,0.0404053-0.1030502,0.0604248c-0.0062485-0.0066071-0.0125961-0.0131073-0.019043-0.019516
				c-0.0068588-0.0306702-0.0137253-0.0613556-0.0205841-0.0920258l0.0047684-0.0090485
				c0.0404129,0.0223389,0.077179,0.0162964,0.1091995-0.0154724c0.3813934-0.3783417,0.7639008-0.7555847,1.1429672-1.136261
				c0.0983582-0.0987854,0.173584-0.2234344,0.280426-0.3104095c0.3781052-0.3078308,0.697403-0.6761322,1.0366669-1.021347
				c0.2833405-0.2882996,0.572113-0.5749054,0.8571014-0.8605194c0.4493942-0.4503937,0.8902359-0.9115753,1.3616562-1.3403168
				c0.079689-0.072464,0.0879211-0.1252747,0.0108261-0.2136536
				C87.0816193,168.8138733,86.8410339,168.5204163,86.6243362,168.2084656z"/>
			<path id="XMLID_432_" fill="#F9B328" d="M91.8583374,170.0880585c0.0050125,0.3095703,0.010025,0.6191254,0.0150452,0.9286804
				c-0.002861,0.0733185-0.0082321,0.1466217-0.0082397,0.2199402c-0.0002747,2.2181702,0.0001068,4.4363556-0.000267,6.6545258
				c-0.0000153,0.1001129-0.0060654,0.2002411-0.0093079,0.3003387c-0.1444321-0.8338013-0.2912216-1.6671906-0.4327774-2.5014801
				c-0.2575836-1.5181122-0.5151291-3.0362549-0.7636948-4.5558472c-0.0289612-0.1770477-0.0862122-0.2820129-0.2747421-0.2823181
				c-0.1928711-0.09375-0.4078369-0.1164398-0.6070251-0.186554c-0.3059769-0.1076813-0.3575516-0.0571289-0.3239594,0.2154083
				c0.0054398,0.0441742-0.0122528,0.0915833-0.0212555,0.1371002c-0.0768967,0.3887024-0.2242432,0.7542419-0.3860474,1.1124115
				c-0.1384354,0.306427-0.3253174,0.5944214-0.6077576,0.780014c-0.2286453,0.1502533-0.4169235,0.3348999-0.5788116,0.5417175
				c-0.3813705,0.4872131-0.5054321,1.0543213-0.4534683,1.6651611c0.009079,0.10672,0.0115814,0.2150421-0.0624771,0.3061676
				c-0.0857239-0.4222565-0.2450867-0.833725-0.182457-1.2774963c0.0734024-0.5201263,0.2782364-0.984848,0.6824646-1.3196259
				c0.3948212-0.3269653,0.5906372-0.7429657,0.6997299-1.2212372c0.0970917-0.4256744,0.1335297-0.853363,0.0818253-1.2900085
				c-0.0185547-0.156662-0.075531-0.2631683-0.2166443-0.3264923c-0.0378113-0.1292114-0.2128296-0.0994263-0.2939301-0.2745667
				C89.3605042,170.1827393,90.5977631,170.2699585,91.8583374,170.0880585z"/>
			<path id="XMLID_431_" fill="#F9B328" d="M88.4059067,159.5085297c-0.3017883,0.2286377-0.6221085,0.4347229-0.876442,0.7211304
				c-0.0677032,0.0762482-0.1357803,0.0728912-0.2040482-0.0011597c-0.21698-0.2353973-0.4668579-0.4383545-0.6654053-0.6929626
				c-0.0804291-0.1031342-0.2002106-0.1745758-0.294426-0.268158c-0.4859848-0.4826965-0.9704819-0.9668884-1.4535828-1.4524536
				c-0.6149597-0.618103-1.227829-1.2382813-1.842186-1.8569794c-0.1432724-0.1442871-0.2903061-0.2848663-0.4323654-0.4303284
				c-0.0321579-0.0329132-0.0614243-0.0480347-0.1047134-0.0344391c0,0-0.0002518-0.0033417-0.0000763-0.0034332
				c0.0064163-0.029007-0.0076599-0.042923-0.0346451-0.0473328l0.0013275,0.0026093
				c0.0037231-0.0299988,0.0073776-0.0599365,0.0110245-0.0898895c0.2027969,0.076828,0.3575897,0.2277527,0.5298996,0.3500061
				c1.7336349,1.2301025,3.4644318,2.4642029,5.1964188,3.6966248
				C88.2909393,159.4403687,88.3494034,159.4730682,88.4059067,159.5085297z"/>
			<path id="XMLID_430_" fill="#F9B328" d="M86.6243362,168.2084656c0.2166977,0.3119507,0.457283,0.6054077,0.7065277,0.8911438
				c0.077095,0.0883789,0.0688629,0.1411896-0.0108261,0.2136536c-0.4714203,0.4287415-0.912262,0.8899231-1.3616562,1.3403168
				c-0.2849884,0.285614-0.573761,0.5722198-0.8571014,0.8605194c-0.3392639,0.3452148-0.6585617,0.7135162-1.0366669,1.021347
				c-0.106842,0.0869751-0.1820679,0.2116241-0.280426,0.3104095c-0.3790665,0.3806763-0.7615738,0.7579193-1.1429672,1.136261
				c-0.0320206,0.0317688-0.0687866,0.0378113-0.1091995,0.0154724c0.4606628-0.6551056,0.9200516-1.3109741,1.3825226-1.9646606
				C84.8169022,170.7574615,85.7209702,169.4832153,86.6243362,168.2084656z"/>
			<path id="XMLID_429_" fill="#F9B328" d="M85.6828842,163.5125427c0.0128479,0.3738251-0.121727,0.7366486-0.0825424,1.1127014
				c0.0085297,0.0818329-0.0323715,0.1249847-0.117691,0.1223297c-0.0466919-0.0014496-0.0934906,0.0004425-0.1402359,0.0004425
				c-2.1839828,0.000061-4.3679657,0.0003967-6.5519409-0.0011597c-0.0843124-0.000061-0.1744232,0.0259552-0.2524567-0.0318146
				c0.940506-0.1616211,1.880722-0.3250275,2.8216095-0.4844513c1.4208603-0.2407837,2.842186-0.4788208,4.2633896-0.7175598
				C85.6424484,163.5097656,85.6629028,163.5125732,85.6828842,163.5125427z"/>
			<path id="XMLID_428_" fill="#FEC829" d="M87.3435516,175.4233246c0.0740585-0.0911255,0.0715561-0.1994476,0.0624771-0.3061676
				c-0.0519638-0.6108398,0.0720978-1.177948,0.4534683-1.6651611c0.1618881-0.2068176,0.3501663-0.3914642,0.5788116-0.5417175
				c0.2824402-0.1855927,0.4693222-0.473587,0.6077576-0.780014c0.1618042-0.3581696,0.3091507-0.7237091,0.3860474-1.1124115
				c0.0090027-0.045517,0.0266953-0.092926,0.0212555-0.1371002c-0.0335922-0.2725372,0.0179825-0.3230896,0.3239594-0.2154083
				c0.1991882,0.0701141,0.4141541,0.092804,0.6070251,0.186554c-0.2039185,0.7265472-0.5443497,1.3771057-1.071373,1.923645
				c-0.1258316,0.1304932-0.2601776,0.2541504-0.4187622,0.3408508c-0.7871475,0.4303436-1.1888962,1.1236572-1.3664474,1.9746399
				c-0.0326996,0.156723-0.0743103,0.3115997-0.1128311,0.4670715c-0.0028992,0.0117035-0.0140381,0.0213776-0.0230484,0.0344543
				C87.3497467,175.5424194,87.3506851,175.4816589,87.3435516,175.4233246z"/>
			<path id="XMLID_427_" fill="#F9B328" d="M90.3817062,158.6437531c-0.2478027,0.1355743-0.5425491,0.131424-0.7914734,0.2684021
				c-0.0823517,0.0453186-0.1711807,0.0136261-0.2323608-0.063736c-0.488884-0.6182709-0.8173828-1.3038635-0.8624115-2.1026917
				c-0.0077515-0.1375122,0.0210495-0.277771,0.0392151-0.4159393c0.0969849-0.7374878-0.1330032-1.3626556-0.6528549-1.8841858
				c-0.1546402-0.1551361-0.2912216-0.3307037-0.4786224-0.4515533l0.0012436-0.000885
				c0.001915-0.017395,0.0038223-0.03479,0.005722-0.0521851c0.2749557,0.1756134,0.5676956,0.3289337,0.8212662,0.5313416
				c0.5807495,0.4635468,0.8151398,1.0947418,0.7622604,1.8230896c-0.0217133,0.2991028,0.0278473,0.5717316,0.1459579,0.8353271
				C89.4156418,157.7467194,89.8353729,158.2480316,90.3817062,158.6437531z"/>
			<path id="XMLID_426_" fill="#F9B328" d="M86.4809189,161.4881439c-0.1263046,0.2565308-0.2544556,0.5121765-0.3778687,0.7700958
				c-0.0410309,0.0857544-0.1117859,0.0813293-0.1860962,0.0815125c-0.4664307,0.0012054-0.8836441-0.1800537-1.3016891-0.3545074
				c-0.3486633-0.1455078-0.6839523-0.3340912-0.8974838-0.6456299c-0.177887-0.2595367-0.3851471-0.4779205-0.635498-0.6499176
				c-0.3487549-0.239624-0.7307205-0.4045563-1.170929-0.4009552c-0.2679977,0.0021973-0.536232-0.0243378-0.8043213-0.0379639
				c0.5239639-0.1183929,1.0380096-0.3139496,1.59198-0.1641388c0.4163361,0.1125946,0.8041382,0.2888947,1.0729828,0.6257172
				c0.3595581,0.45047,0.8399887,0.6389923,1.3741837,0.7463074
				C85.5890961,161.5476379,86.0342407,161.5583191,86.4809189,161.4881439z"/>
			<path id="XMLID_425_" fill="#F9B328" d="M85.7600174,166.2317047c0.0593948,0.1963196,0.1143494,0.3941193,0.1791458,0.5886536
				c0.1248093,0.3747253,0.1032867,0.4340515-0.2238541,0.6368713c-0.4947052,0.3067017-1.0141144,0.5466919-1.5943527,0.6443634
				c-0.1960526,0.0330048-0.383316,0.0091095-0.5737076-0.0218201c-0.7804718-0.1268005-1.4358978,0.1183777-2.0007858,0.6572876
				c-0.1274872,0.1216125-0.2224121,0.2874298-0.4060059,0.3448029c0.3817215-0.7754211,0.9253235-1.3479767,1.8347397-1.4590302
				c0.0988388-0.0120697,0.2020187-0.0298615,0.2983475-0.0145721c0.714386,0.1135101,1.2604446-0.2384338,1.7880707-0.6391449
				C85.3340149,166.7622528,85.5580826,166.5067749,85.7600174,166.2317047z"/>
			<path id="XMLID_424_" fill="#FEC829" d="M82.5668793,174.1181793c-0.048378,0.0376892-0.096756,0.0753784-0.1539078,0.1199036
				c-0.0339737-0.0772858,0.0066376-0.1081085,0.0421219-0.1407776c0.0309296,0.0004425,0.0618362,0.0009003,0.0927429,0.001358
				C82.5542831,174.105072,82.5606308,174.1115723,82.5668793,174.1181793z"/>
			<path id="XMLID_423_" fill="#FEC829" d="M82.5103683,155.3551331c-0.0036469,0.029953-0.0073013,0.0598907-0.0110245,0.0898895
				c-0.0554581-0.0361023-0.0859375-0.0888367-0.1097565-0.1488495
				C82.472084,155.2477417,82.4660645,155.3470612,82.5103683,155.3551331z"/>
			<path id="XMLID_422_" fill="#F9B328" d="M81.1425858,169.0787506c-0.0106812,0.0437622-0.0213623,0.0875244-0.0320435,0.1313019
				l0.000473-0.0014801c-0.017601-0.0021362-0.0351791-0.0042725-0.0527649-0.0063934
				C81.0764999,169.1542969,81.0939026,169.105835,81.1425858,169.0787506z"/>
			<path id="XMLID_421_" fill="#FEC829" d="M81.0582504,169.202179c0.0175858,0.002121,0.0351639,0.0042572,0.0527649,0.0063934
				c-0.0207901,0.0326691-0.0447693,0.0659485-0.0878677,0.0492554
				C81.0153427,169.2548065,81.0293579,169.2115021,81.0582504,169.202179z"/>
			<path id="XMLID_420_" fill="#F9B328" d="M82.5478363,174.0986633c-0.0309067-0.0004578-0.0618134-0.0009155-0.0927429-0.001358
				c0.0241699-0.0301666,0.0483627-0.0603485,0.0723572-0.0906067
				C82.534111,174.0373077,82.5409775,174.0679932,82.5478363,174.0986633z"/>
			<path id="XMLID_419_" fill="#FEC829" d="M87.4101639,153.940979c-0.0018997,0.017395-0.0038071,0.03479-0.005722,0.0521851
				c-0.0270538-0.0101013-0.0446014-0.0314484-0.0340118-0.0575409
				C87.3803864,153.911087,87.3985977,153.9238586,87.4101639,153.940979z"/>
			<path id="XMLID_418_" fill="#FEC829" d="M82.4980164,155.4424133c0.0269852,0.0044098,0.0410614,0.0183258,0.0346451,0.0473328
				C82.5209961,155.4740295,82.5095062,155.4582214,82.4980164,155.4424133z"/>
			<path id="XMLID_417_" fill="#FEC829" d="M97.0863113,161.2910004c0.0660782,0.1612091,0.1446304,0.182663,0.3136444,0.094101
				c0.6928177-0.3630371,1.4303284-0.5490112,2.2201691-0.4911041c0.2155533,0.0158081,0.4153214,0.0994415,0.6273804,0.1262665
				c0.6421738,0.0812225,1.2327271-0.0672913,1.7830353-0.3987732c0.1882401-0.1133728,0.3796234-0.2215424,0.5695648-0.332077
				c-0.0106888,0.0437775-0.0213699,0.0875397-0.0320511,0.1313019l0.0021362-0.0031128
				c-0.1835938,0.057373-0.2785187,0.2231903-0.4060059,0.3448029c-0.5648956,0.5389099-1.220314,0.7840881-2.0007858,0.6572876
				c-0.1903915-0.0309296-0.377655-0.0548248-0.5737076-0.0218201c-0.5802383,0.0976715-1.0996475,0.3376617-1.5943527,0.6443634
				c-0.3271408,0.2028198-0.3486633,0.262146-0.2238541,0.6368713c0.0647964,0.1945343,0.119751,0.392334,0.1791458,0.5886536
				c0.0024033,0.1838837,0.0977783,0.2495117,0.2787476,0.2793579c2.3297424,0.3843536,4.6580429,0.7774506,6.9866714,1.1685486
				c0.0245819,0.0041199,0.0548248,0.0011139,0.0605774,0.0377045c-0.0238037,0.0459747-0.0661392,0.0311584-0.1039963,0.0310364
				c-0.0780334-0.0577545-0.1681442-0.0317383-0.2524567-0.0317993c-2.1839752-0.0015564-4.3679581-0.0012207-6.5519409-0.0011597
				c-0.0467453,0-0.093544,0.0018921-0.1402359,0.0004425c-0.0853195-0.002655-0.1262207,0.0404968-0.117691,0.1223297
				c0.0391846,0.3760529-0.0953903,0.7388763-0.0825424,1.1127014c-0.1015625,0.2339478-0.099884,0.2289886,0.131897,0.3074951
				c0.7660904,0.2595062,1.5179138,0.6051941,1.9450836,1.3022003c0.5709305,0.9315491,1.3801727,1.3929749,2.4091797,1.5689087
				c0.0522919,0.0089417,0.1041489,0.0238495,0.1541138,0.0418091c0.0330353,0.0118866,0.0113983,0.0306854-0.0055923,0.0364838
				c-0.0180664,0.0061646-0.0391159,0.0036163-0.0588303,0.0048676c-0.2680969-0.0136414-0.5363235-0.0401611-0.8043213-0.0379639
				c-0.4402161,0.0036011-0.8221741-0.1613312-1.1709366-0.4009552c-0.2503433-0.1719971-0.4576035-0.3903809-0.6354904-0.6499176
				c-0.2135315-0.3115387-0.5488205-0.5001221-0.8974838-0.6456299c-0.418045-0.1744537-0.8352585-0.3557129-1.3016891-0.3545074
				c-0.0743103,0.0001831-0.1450653-0.0042419-0.1860962,0.0815125c-0.1234131,0.2579193-0.251564,0.5135651-0.3778687,0.7700958
				c-0.1401901,0.1212158-0.140564,0.2288208-0.0257416,0.388916c1.2770996,1.7805939,2.5452271,3.567627,3.8145599,5.3537903
				c0.0574646,0.0808716,0.130722,0.1528015,0.1593628,0.2522583c-0.0432892,0.0135956-0.0725555-0.0015259-0.1047134-0.0344543
				c-0.1420593-0.1454468-0.289093-0.286026-0.4323654-0.4303131c-0.614357-0.6186981-1.2272263-1.2388763-1.842186-1.8569794
				c-0.4831009-0.4855652-0.9676056-0.9697571-1.4535828-1.4524536c-0.0942154-0.0935822-0.2139969-0.1650238-0.294426-0.268158
				c-0.1985474-0.2546082-0.4484253-0.4575653-0.6654053-0.6929626c-0.0682678-0.0740662-0.1363449-0.0774078-0.2040482-0.0011597
				c-0.2543335,0.2864075-0.5746536,0.4924774-0.876442,0.7211304c-0.1583176,0.0681305-0.1824875,0.1439056-0.0922852,0.3149872
				c0.3648529,0.6919708,0.5488434,1.4301453,0.491333,2.2198792c-0.0156937,0.2154694-0.0985947,0.4152069-0.1258621,0.6272125
				c-0.0816727,0.6350861,0.0660172,1.2194061,0.387291,1.7661591c0.114624,0.1950836,0.2528839,0.3763885,0.3422318,0.5862274
				c-0.1874008-0.1208344-0.3239822-0.296402-0.4786224-0.4515381c-0.5198517-0.5215302-0.7498398-1.146698-0.6528549-1.8841858
				c0.0181656-0.1381683,0.0469666-0.2784271,0.0392151-0.4159546c-0.0450287-0.7988129-0.3735275-1.4844208-0.8624115-2.1026764
				c-0.0611801-0.0773621-0.1500092-0.1090546-0.2323608-0.063736c-0.2489243,0.1369781-0.5436707,0.1328278-0.7914734,0.2684021
				c-0.1684189,0.0064392-0.246933,0.0812683-0.2764664,0.2610016c-0.3092804,1.8821259-0.6277695,3.7627258-0.9453354,5.6434784
				c-0.0809708,0.4795532-0.1676865,0.9581451-0.2517624,1.4371796c-0.0029831-0.3675232-0.0084-0.7350464-0.0085602-1.1025848
				c-0.0008469-1.9451599-0.000267-3.8903198-0.0007172-5.8354797c-0.0000153-0.0800323-0.0053558-0.1600647-0.0082092-0.240097
				c-0.0001755-0.376358-0.000351-0.7527161-0.0005341-1.1290741c-0.000145-0.8301392-0.0002899-1.6602631-0.0004349-2.4904022
				c0.0029526-0.0666962,0.0084763-0.1333923,0.0084839-0.2000732c0.0002899-2.4821777,0.0001602-4.9643555-0.0004349-7.4465332
				c-0.0000229-0.100174-0.0051346-0.2003326-0.0078735-0.3004913c0.0050659-0.0137482,0.0101395-0.0274963,0.015213-0.0412445
				c1.2605743-0.1818848,2.4978333-0.0946808,3.7437973,0.374176c-0.0811081-0.1751404-0.2561188-0.1453552-0.2939301-0.2745667
				c0.6826248-0.4806519,1.366806-0.9591217,2.0475464-1.4424438c1.2313232-0.8742065,2.4605484-1.7513885,3.6909943-2.6268463
				c0.0323181-0.022995,0.0686111-0.0404053,0.1030502-0.0604248c0.0062408,0.0065918,0.0125885,0.0131073,0.0190353,0.019516
				c0.0068665,0.0306702,0.0137253,0.0613556,0.0205917,0.0920258c0,0-0.0046539,0.0092773-0.0047684,0.0090485
				c-0.0404129-0.0223389-0.077179-0.0162964-0.1091995,0.0154724c-0.3813934,0.3783417-0.7639084,0.7555847-1.1429672,1.136261
				c-0.0983582,0.0987854-0.173584,0.2234344-0.280426,0.3104095c-0.3781052,0.3078308-0.697403,0.6761322-1.0366669,1.021347
				c-0.2833405,0.2882996-0.572113,0.5749054-0.8571014,0.8605194c-0.4493942,0.4503937-0.8902359,0.9115753-1.3616562,1.3403168
				c-0.079689,0.072464-0.0879211,0.1252747-0.0108261,0.2136536
				C96.6290283,160.6855774,96.8696136,160.9790497,97.0863113,161.2910004z"/>
			<path id="XMLID_413_" fill="#F9B328" d="M91.8523102,159.4113922c-0.0050125-0.3095551-0.0100327-0.6191101-0.0150528-0.9286652
				c0.0028687-0.0733185,0.0082321-0.1466217,0.0082474-0.2199402c0.0002747-2.2181702-0.0001068-4.4363556,0.000267-6.6545258
				c0.0000153-0.1001282,0.0060654-0.2002411,0.0093079-0.3003387c0.1444321,0.8338013,0.2912216,1.6671906,0.4327774,2.5014801
				c0.2575836,1.5181122,0.5151215,3.0362549,0.7636948,4.5558472c0.0289536,0.1770477,0.0862045,0.2820129,0.2747421,0.2823181
				c0.1928711,0.09375,0.4078369,0.1164398,0.6070251,0.186554c0.3059769,0.1076813,0.3575516,0.0571289,0.3239594-0.2154083
				c-0.0054398-0.0441742,0.0122528-0.0915833,0.0212555-0.1371155c0.0768967-0.3886871,0.2242432-0.7542267,0.3860474-1.1123962
				c0.1384277-0.306427,0.3253174-0.5944214,0.6077499-0.780014c0.2286453-0.1502533,0.4169312-0.3348999,0.5788193-0.5417175
				c0.3813705-0.4872131,0.5054321-1.0543213,0.4534683-1.6651611c-0.009079-0.10672-0.0115814-0.2150421,0.0624771-0.3061829
				c0.0857162,0.4222565,0.2450867,0.833725,0.182457,1.2774963c-0.0734024,0.5201416-0.2782364,0.9848633-0.6824646,1.3196259
				c-0.3948212,0.3269806-0.5906372,0.742981-0.6997299,1.2212524c-0.0970917,0.4256744-0.1335297,0.853363-0.0818253,1.2899933
				c0.0185547,0.1566772,0.075531,0.2631836,0.2166443,0.3265076c0.0378113,0.1292114,0.212822,0.0994263,0.2939301,0.2745667
				C94.3501434,159.3167114,93.1128845,159.2295074,91.8523102,159.4113922z"/>
			<path id="XMLID_411_" fill="#F9B328" d="M95.3047409,169.9909363c0.3017883-0.228653,0.6221085-0.4347229,0.876442-0.7211304
				c0.0677032-0.0762482,0.1357803-0.0729065,0.2040482,0.0011597c0.21698,0.2353973,0.4668579,0.4383545,0.6654053,0.6929626
				c0.0804291,0.1031342,0.2002106,0.1745758,0.294426,0.268158c0.4859772,0.4826965,0.9704819,0.9668884,1.4535828,1.4524536
				c0.6149597,0.618103,1.227829,1.2382813,1.842186,1.8569794c0.1432724,0.1442871,0.2903061,0.2848663,0.4323654,0.4303131
				c0.0321579,0.0329285,0.0614243,0.0480499,0.1047134,0.0344543l0.0000763,0.0034332
				c-0.0064163,0.029007,0.0076599,0.042923,0.0346451,0.0473328l-0.0013275-0.0026093
				c-0.0037231,0.0299988-0.0073776,0.0599365-0.0110245,0.0898743c-0.2027969-0.0768127-0.3575897-0.2277374-0.5298996-0.3499908
				c-1.7336349-1.2301025-3.4644318-2.4642029-5.1964188-3.6966248
				C95.4197083,170.0590973,95.3612442,170.0263977,95.3047409,169.9909363z"/>
			<path id="XMLID_410_" fill="#F9B328" d="M97.0863113,161.2910004c-0.2166977-0.3119507-0.457283-0.605423-0.7065277-0.8911438
				c-0.077095-0.0883789-0.0688629-0.1411896,0.0108261-0.2136536c0.4714203-0.4287415,0.912262-0.8899231,1.3616562-1.3403168
				c0.2849884-0.285614,0.573761-0.5722198,0.8571014-0.8605194c0.3392639-0.3452148,0.6585617-0.7135162,1.0366669-1.021347
				c0.106842-0.0869751,0.1820679-0.2116241,0.280426-0.3104095c0.3790588-0.3806763,0.7615738-0.7579193,1.1429672-1.136261
				c0.0320206-0.0317688,0.0687866-0.0378113,0.1091995-0.0154724c-0.4606628,0.6551056-0.9200592,1.3109741-1.3825226,1.9646606
				C98.8937454,158.7420044,97.9896698,160.0162506,97.0863113,161.2910004z"/>
			<path id="XMLID_407_" fill="#F9B328" d="M98.0277634,165.9869232c-0.0128479-0.3738251,0.121727-0.7366486,0.0825424-1.1127014
				c-0.0085297-0.0818329,0.0323715-0.1249847,0.117691-0.1223297c0.0466919,0.0014496,0.0934906-0.0004425,0.1402359-0.0004425
				c2.1839828-0.000061,4.3679657-0.0003967,6.5519409,0.0011597c0.0843124,0.000061,0.1744232-0.0259552,0.2524567,0.0318146
				c-0.940506,0.1616211-1.880722,0.3250122-2.8216095,0.4844513c-1.4208603,0.2407684-2.842186,0.4788208-4.2633896,0.7175598
				C98.0681992,165.9897003,98.0477448,165.9868927,98.0277634,165.9869232z"/>
			<path id="XMLID_406_" fill="#FEC829" d="M96.3670959,154.0761261c-0.0740585,0.0911407-0.0715561,0.1994629-0.0624771,0.3061829
				c0.0519638,0.6108398-0.0720978,1.177948-0.4534683,1.6651611c-0.1618881,0.2068176-0.350174,0.3914642-0.5788193,0.5417175
				c-0.2824326,0.1855927-0.4693222,0.473587-0.6077499,0.780014c-0.1618042,0.3581696-0.3091507,0.7237091-0.3860474,1.1123962
				c-0.0090027,0.0455322-0.0266953,0.0929413-0.0212555,0.1371155c0.0335922,0.2725372-0.0179825,0.3230896-0.3239594,0.2154083
				c-0.1991882-0.0701141-0.4141541-0.092804-0.6070251-0.186554c0.2039185-0.7265472,0.5443497-1.3771057,1.071373-1.923645
				c0.125824-0.1304932,0.2601776-0.2541504,0.4187546-0.3408508c0.7871552-0.4303436,1.1889038-1.1236725,1.3664551-1.9746399
				c0.0326996-0.156723,0.0743103-0.3115997,0.1128311-0.4670715c0.0028992-0.0117035,0.0140305-0.0213776,0.0230484-0.0344696
				C96.3609009,153.9570465,96.3599625,154.0177917,96.3670959,154.0761261z"/>
			<path id="XMLID_405_" fill="#F9B328" d="M93.3289413,170.8557129c0.2478027-0.1355743,0.5425491-0.131424,0.7914734-0.2684021
				c0.0823517-0.0453186,0.1711807-0.0136261,0.2323608,0.063736c0.488884,0.6182556,0.8173828,1.3038635,0.8624115,2.1026764
				c0.0077515,0.1375275-0.0210495,0.2777863-0.0392151,0.4159546c-0.0969849,0.7374878,0.1330032,1.3626556,0.6528549,1.8841858
				c0.1546402,0.1551361,0.2912216,0.3307037,0.4786224,0.4515381l-0.0012436,0.0009003
				c-0.001915,0.017395-0.0038223,0.03479-0.005722,0.0521851c-0.2749557-0.1756134-0.5676956-0.3289337-0.8212662-0.5313416
				c-0.5807495-0.4635468-0.8151398-1.0947418-0.7622681-1.8230896c0.0217209-0.2991028-0.0278473-0.5717316-0.1459503-0.8353271
				C94.2949982,171.7527466,93.8752747,171.2514343,93.3289413,170.8557129z"/>
			<path id="XMLID_404_" fill="#F9B328" d="M97.2297287,168.011322c0.1263046-0.2565308,0.2544556-0.5121765,0.3778687-0.7700958
				c0.0410309-0.0857544,0.1117859-0.0813293,0.1860962-0.0815125c0.4664307-0.0012054,0.8836441,0.1800537,1.3016891,0.3545074
				c0.3486633,0.1455078,0.6839523,0.3340912,0.8974838,0.6456299c0.177887,0.2595367,0.3851471,0.4779205,0.6354904,0.6499176
				c0.3487625,0.239624,0.7307205,0.4045563,1.1709366,0.4009552c0.2679977-0.0021973,0.5362244,0.0243225,0.8043213,0.0379639
				c-0.5239716,0.1183777-1.0380096,0.3139496-1.59198,0.1641388c-0.4163361-0.1125946-0.8041382-0.2888947-1.0729828-0.6257172
				c-0.3595581-0.45047-0.8399887-0.6389923-1.3741837-0.7463074
				C98.1215515,167.951828,97.6764069,167.9411469,97.2297287,168.011322z"/>
			<path id="XMLID_403_" fill="#F9B328" d="M97.9506302,163.2677612c-0.0593948-0.1963196-0.1143494-0.3941193-0.1791458-0.5886536
				c-0.1248093-0.3747253-0.1032867-0.4340515,0.2238541-0.6368713c0.4947052-0.3067017,1.0141144-0.5466919,1.5943527-0.6443634
				c0.1960526-0.0330048,0.383316-0.0091095,0.5737076,0.0218201c0.7804718,0.1268005,1.4358902-0.1183777,2.0007858-0.6572876
				c0.1274872-0.1216125,0.2224121-0.2874298,0.4060059-0.3448029c-0.3817291,0.7754211-0.9253235,1.3479767-1.8347397,1.4590302
				c-0.0988388,0.0120544-0.2020187,0.0298615-0.2983475,0.0145569c-0.714386-0.1134949-1.2604446,0.2384491-1.7880707,0.6391449
				C98.3766327,162.7372131,98.152565,162.992691,97.9506302,163.2677612z"/>
			<path id="XMLID_402_" fill="#FEC829" d="M101.1805649,155.3812866c0.048378-0.0376892,0.096756-0.0753937,0.1539078-0.1199036
				c0.0339737,0.0772705-0.0066376,0.1081085-0.0421219,0.1407776c-0.0309296-0.0004425-0.0618362-0.0009003-0.0927429-0.001358
				C101.193161,155.3943939,101.1868134,155.3878784,101.1805649,155.3812866z"/>
			<path id="XMLID_401_" fill="#FEC829" d="M101.2370758,174.1443176c0.0036545-0.0299377,0.0073013-0.0598755,0.0110245-0.0898743
				c0.0554581,0.036087,0.0859375,0.0888214,0.1097641,0.1488495
				C101.2753601,174.2517242,101.2813797,174.1524048,101.2370758,174.1443176z"/>
			<path id="XMLID_400_" fill="#F9B328" d="M102.6048584,169.0845795c0.0106812,0.0437622,0.0213623,0.0875397,0.0320435,0.1313171
				l-0.000473-0.0014954c0.017601-0.0021362,0.0351868-0.0042572,0.0527649-0.0063934
				C102.6709442,169.1601257,102.6535416,169.1116638,102.6048584,169.0845795z"/>
			<path id="XMLID_399_" fill="#FEC829" d="M102.6891937,169.2080078c-0.0175781,0.0021362-0.0351639,0.0042572-0.0527649,0.0063934
				c0.0207901,0.0326691,0.0447693,0.0659485,0.0878677,0.0492554
				C102.7321014,169.2606354,102.7180939,169.2173309,102.6891937,169.2080078z"/>
			<path id="XMLID_398_" fill="#F9B328" d="M101.1996078,155.4008026c0.0309067,0.0004578,0.0618134,0.0009155,0.0927429,0.001358
				c-0.0241699,0.0301666-0.0483627,0.0603485-0.0723572,0.0906067
				C101.2133331,155.4621582,101.2064667,155.4314728,101.1996078,155.4008026z"/>
			<path id="XMLID_397_" fill="#FEC829" d="M96.3004837,175.5584869c0.0018997-0.017395,0.0038071-0.03479,0.005722-0.0521851
				c0.0270538,0.0101013,0.0446014,0.0314484,0.0340118,0.0575409
				C96.3302612,175.5883789,96.3120499,175.5756073,96.3004837,175.5584869z"/>
			<path id="XMLID_396_" fill="#FEC829" d="M101.2494354,174.0570526c-0.0269928-0.0044098-0.041069-0.0183258-0.0346527-0.0473328
				C101.2264557,174.0254364,101.2379456,174.0412445,101.2494354,174.0570526z"/>
			<circle id="XMLID_395_" fill="#F9B328" cx="91.7825775" cy="164.8160706" r="6.2936354"/>
			<circle id="XMLID_394_" fill="#FEC829" cx="91.2318649" cy="164.2653656" r="5.7429247"/>
		</g>
		<path id="XMLID_392_" fill="#FDFEFE" d="M120.8717575,164.8874207c2.1857986-0.7028503,4.3716278-1.4056091,6.5576935-2.1076355
			c0.4442215-0.1426392,0.6401901-0.0319824,0.7612839,0.4255981c0.2071228,0.7826691-0.3476028,1.5450287-1.1530914,1.5432892
			c-0.2485428-0.0005341-0.2447357,0.0645905-0.2282639,0.2719727c0.1032104,1.2993317-0.8072739,2.318573-2.104393,2.335968
			c-0.3207016,0.004303-0.2396622,0.1655121-0.2106476,0.3280945c0.1876907,1.05159-0.0805054,1.9811401-0.7675858,2.7851257
			c-1.5813904,1.8504791-4.673378,1.340683-5.5705032-0.9174805c-0.0842056-0.2119446-0.1218414-0.2509766-0.3188477-0.0846558
			c-0.7972336,0.6731262-1.6994553,0.7989044-2.6347427,0.3489685c-0.9376602-0.4510651-1.3750763-1.2428131-1.3738251-2.282074
			c0.0003281-0.2772827,0.0993958-0.4257507,0.3878555-0.5164642
			C116.4386597,166.3193817,118.6542816,165.6004486,120.8717575,164.8874207z"/>
		<path id="XMLID_391_" fill="#FDFEFE" d="M70.7289505,165.5442505c1.1663818,0.276825,2.332756,0.5536804,3.4990311,0.8309479
			c0.2369919,0.0563354,0.2946243,0.1587372,0.2250366,0.395874c-0.1190109,0.4056091-0.5728683,0.5962372-0.9322205,0.3777466
			c-0.110878-0.0674286-0.1267853-0.0372925-0.1754761,0.0597992c-0.3050766,0.6083069-0.9872894,0.8175201-1.5714188,0.4747009
			c-0.1444244-0.0847626-0.1517944,0.0091553-0.1827774,0.0896301c-0.200386,0.5204926-0.571434,0.8632355-1.095665,1.0366821
			c-1.2065659,0.3991852-2.4499893-0.6642609-2.2404022-1.9154663c0.0196686-0.1174316,0.0134048-0.14505-0.1195526-0.1239929
			c-0.538063,0.0852051-0.97509-0.1024628-1.271286-0.5562439c-0.2969437-0.4549255-0.2783356-0.9268341,0.0031128-1.3907471
			c0.0750885-0.1237793,0.1594696-0.1633148,0.312851-0.1258698
			C68.3616104,164.985733,69.5456619,165.2634277,70.7289505,165.5442505z"/>
		<polygon id="XMLID_390_" fill="#FEC829" points="78.5102005,14.9017286 78.0294037,16.0958672 78.7405396,17.168911 
			77.4562683,17.0806561 76.6554947,18.0885696 76.3425751,16.8398876 75.1365356,16.3897686 76.2274094,15.706296 
			76.2828064,14.4201927 77.269928,15.2464666 		"/>
		<polygon id="XMLID_389_" fill="#FEC829" points="72.1099167,24.7020798 72.6619797,26.4420605 74.4083023,26.9737091 
			72.9240799,28.0364323 72.9580917,29.8615742 71.4887314,28.7783928 69.7634354,29.3747444 70.3395386,27.6425781 
			69.2392273,26.1860008 71.0646439,26.1986446 		"/>
		<polygon id="XMLID_388_" fill="#FEC829" points="57.8780518,21.163168 58.5294914,21.5776348 59.2402306,21.2759647 
			59.0473518,22.0235977 59.5538902,22.606329 58.7832451,22.653923 58.3855629,23.3157425 58.1021576,22.5975246 
			57.3498383,22.4238205 57.9453278,21.9323425 		"/>
		<polygon id="XMLID_387_" fill="#FEC829" points="112.0222549,24.4976654 111.5905228,25.8580093 112.4663925,26.9848576 
			111.0392151,26.9946289 110.2381821,28.1758423 109.7878647,26.821537 108.4169312,26.4247208 109.5657959,25.5779419 
			109.5195465,24.1514816 110.6799011,24.9824486 		"/>
		<polygon id="XMLID_386_" fill="#FEC829" points="118.7365952,19.402195 119.016922,20.285738 119.9036865,20.5557041 
			119.1500168,21.0953426 119.1672897,22.022131 118.4211655,21.4721031 117.5450745,21.7749233 117.837616,20.8953476 
			117.2788925,20.155714 118.2058182,20.1621342 		"/>
		<polygon id="XMLID_385_" fill="#FEC829" points="124.9118195,29.9410229 124.5034332,31.7649021 125.7743835,33.1353035 
			123.9135742,33.3105164 123.0029907,34.9427376 122.2613297,33.2271461 120.4276123,32.865509 121.8300476,31.6300049 
			121.6073303,29.7742825 123.215744,30.7262878 		"/>
		<path id="XMLID_384_" fill="#FDFEFE" d="M106.6374283,156.1487732c1.2490463-0.2565308,2.4981079-0.5130157,3.747261-0.7690735
			c0.25383-0.0520325,0.3553696,0.0208588,0.3946991,0.280777c0.0672607,0.4445648-0.2848663,0.8320923-0.7294693,0.7826691
			c-0.1371841-0.0152588-0.1389999,0.0209351-0.1423874,0.1364136c-0.0211868,0.7235565-0.5851822,1.2315063-1.3023605,1.1630707
			c-0.1773148-0.016922-0.1422653,0.0769501-0.1360321,0.168457c0.0403519,0.5918732-0.1636353,1.0889435-0.5913391,1.4914856
			c-0.9844055,0.9264832-2.6607971,0.4589996-3.0202408-0.8416901c-0.0337372-0.1220703-0.0521698-0.1458893-0.1709442-0.0659027
			c-0.4806442,0.3236542-0.9863205,0.3388214-1.4756165,0.0341492c-0.4905396-0.3054504-0.6844025-0.7688904-0.6211853-1.3425751
			c0.016861-0.1530762,0.0804901-0.2290802,0.2452011-0.2618103
			C104.1037903,156.6726532,105.3702698,156.4090271,106.6374283,156.1487732z"/>
		<path id="XMLID_383_" fill="#FDFEFE" d="M63.4489899,153.0792694c0.6609497,0.3470154,1.3218765,0.694046,1.9826889,1.0413208
			c0.1342773,0.0705566,0.153244,0.1412354,0.0746689,0.2735596c-0.1343994,0.2263184-0.4376221,0.271286-0.620697,0.0840149
			c-0.056488-0.057785-0.0707321-0.0420685-0.1150894,0.0089874c-0.2779312,0.3199005-0.7217941,0.3408356-1.021286,0.043869
			c-0.0740471-0.0734253-0.0929871-0.0178986-0.1240959,0.0258636c-0.2012215,0.2830811-0.4779663,0.4325867-0.8209953,0.4563141
			c-0.7895203,0.0546265-1.3755417-0.7788391-1.0559998-1.5013428c0.0299911-0.0678101,0.0304756-0.085434-0.0529861-0.0932465
			c-0.3377609-0.0316315-0.5724487-0.2122955-0.6811066-0.5317688c-0.1089363-0.320282-0.0248833-0.6021118,0.216507-0.8385468
			c0.0644073-0.0630798,0.1214142-0.0739136,0.208168-0.0276489
			C62.1069984,152.3769684,62.7784691,152.7272339,63.4489899,153.0792694z"/>
		<path id="XMLID_312_" fill="#FDFEFE" d="M125.7302551,152.1929779c0.6191177-0.2853394,1.2382431-0.5706635,1.85746-0.8557587
			c0.1258316-0.0579376,0.1875534-0.0323334,0.2396088,0.0982056c0.0890427,0.2232819-0.0471878,0.4678192-0.284668,0.4961243
			c-0.0732727,0.008728-0.0698242,0.0277863-0.0575485,0.0883331c0.076889,0.3792725-0.155014,0.7122498-0.5367126,0.7637787
			c-0.094368,0.0127258-0.0647202,0.0573425-0.0503464,0.1042328c0.092926,0.3032379,0.0471268,0.5868073-0.1266251,0.8483582
			c-0.3999252,0.6019745-1.3295059,0.5623016-1.6746979-0.0711823c-0.0323944-0.0594635-0.0448914-0.0696259-0.0970001-0.0135498
			c-0.210907,0.2269135-0.4723358,0.2962646-0.7640991,0.1970978c-0.2925034-0.099411-0.4497452-0.3171387-0.4865494-0.6234894
			c-0.0098267-0.0817413,0.0140686-0.1290436,0.0958405-0.1661072
			C124.4748383,152.7736053,125.1021729,152.4824524,125.7302551,152.1929779z"/>
		<path id="XMLID_311_" fill="#FDFEFE" d="M81.7972031,155.1624756c1.0358505,0.2458344,2.0716934,0.4917145,3.1074524,0.7379608
			c0.2104721,0.0500336,0.2616501,0.1409607,0.1998596,0.3515625c-0.1057053,0.3602142-0.5087662,0.5295105-0.8279037,0.3354645
			c-0.098465-0.0598602-0.1125946-0.0331116-0.155838,0.0531158c-0.2709351,0.5402374-0.8768005,0.7260437-1.3955612,0.4215851
			c-0.1282578-0.0752716-0.1348038,0.0081329-0.1623154,0.0795898c-0.1779633,0.4622345-0.5074844,0.7666321-0.973053,0.9206696
			c-1.0715408,0.3545227-2.1758118-0.58992-1.9896774-1.7011108c0.0174713-0.1042938,0.0119019-0.1288147-0.1061707-0.1101074
			c-0.4778519,0.0756683-0.8659744-0.0910034-1.1290207-0.4940033c-0.26371-0.4040222-0.2471848-0.8231049,0.0027618-1.2350922
			c0.0666962-0.1099396,0.1416321-0.14505,0.2778397-0.1118011
			C79.6947937,154.6664581,80.7463379,154.9130707,81.7972031,155.1624756z"/>
	</g>
</g>
</svg>
