<?xml version="1.0" encoding="utf-8"?>
<!-- Generator: Adobe Illustrator 19.0.0, SVG Export Plug-In . SVG Version: 6.00 Build 0)  -->
<svg version="1.1" id="DialImage" xmlns="http://www.w3.org/2000/svg" xmlns:xlink="http://www.w3.org/1999/xlink" x="0px" y="0px"
	 viewBox="-213 304 185 185" enable-background="new -213 304 185 185" xml:space="preserve">
<g id="DialClipped">
	<defs>
		<rect id="SVGID_1_" x="-213" y="304" width="185" height="92.3"/>
	</defs>
	<clipPath id="SVGID_2_">
		<use xlink:href="#SVGID_1_"  overflow="visible"/>
	</clipPath>
	<g id="DialObject" clip-path="url(#SVGID_2_)">
		<g id="XMLID_308_">
			<g id="XMLID_436_">
				
					<circle id="XMLID_8_" fill="none" stroke="#FFFFFF" stroke-miterlimit="10" stroke-dasharray="6.0354,6.0354" cx="-120.5" cy="396.3" r="73"/>
			</g>
			<g id="XMLID_434_">
				<path id="XMLID_435_" fill="#FEC829" d="M-117.7,321.4c-2.1-3.1-2.3-6.8-1-10c0.1-0.3-0.2-0.7-0.5-0.6c-1.4,0.3-2.7,0.9-3.9,1.8
					c-4.3,3.2-5.5,9.4-2.6,13.9c3.2,5,9.8,6.3,14.6,3c1.1-0.8,2-1.7,2.8-2.8c0.2-0.3,0-0.7-0.4-0.7
					C-112.2,326.1-115.6,324.5-117.7,321.4z"/>
			</g>
			<g id="XMLID_393_">
				<path id="XMLID_433_" fill="#FEC829" d="M-126.4,472.2c-0.1-0.2-0.1-0.2-0.3-0.1c-0.7,0.4-1.4,0.5-2.2,0.5
					c-0.2,0-0.4-0.1-0.6-0.1c-0.6-0.1-1.2,0.1-1.8,0.4c-0.2,0.1-0.4,0.2-0.6,0.3c0,0,0-0.1,0-0.1l0,0c0.2-0.1,0.3-0.2,0.4-0.3
					c0.6-0.5,1.2-0.8,2-0.7c0.2,0,0.4,0.1,0.6,0c0.6-0.1,1.1-0.3,1.6-0.6c0.3-0.2,0.3-0.3,0.2-0.6c-0.1-0.2-0.1-0.4-0.2-0.6
					c0-0.2-0.1-0.2-0.3-0.3c-2.3-0.4-4.7-0.8-7-1.2c0,0-0.1,0-0.1,0c0,0,0.1,0,0.1,0c0.1,0.1,0.2,0,0.3,0c2.2,0,4.4,0,6.6,0
					c0,0,0.1,0,0.1,0c0.1,0,0.1,0,0.1-0.1c0-0.4,0.1-0.7,0.1-1.1c0.1-0.2,0.1-0.2-0.1-0.3c-0.8-0.3-1.5-0.6-1.9-1.3
					c-0.6-0.9-1.4-1.4-2.4-1.6c-0.1,0-0.1,0-0.2,0c0,0,0,0,0,0c0,0,0,0,0.1,0c0.3,0,0.5,0,0.8,0c0.4,0,0.8,0.2,1.2,0.4
					c0.3,0.2,0.5,0.4,0.6,0.6c0.2,0.3,0.5,0.5,0.9,0.6c0.4,0.2,0.8,0.4,1.3,0.4c0.1,0,0.1,0,0.2-0.1c0.1-0.3,0.3-0.5,0.4-0.8
					c0.1-0.1,0.1-0.2,0-0.4c-1.3-1.8-2.5-3.6-3.8-5.4c-0.1-0.1-0.1-0.2-0.2-0.3c0,0,0.1,0,0.1,0c0.1,0.1,0.3,0.3,0.4,0.4
					c0.6,0.6,1.2,1.2,1.8,1.9c0.5,0.5,1,1,1.5,1.5c0.1,0.1,0.2,0.2,0.3,0.3c0.2,0.3,0.4,0.5,0.7,0.7c0.1,0.1,0.1,0.1,0.2,0
					c0.3-0.3,0.6-0.5,0.9-0.7c0.2-0.1,0.2-0.1,0.1-0.3c-0.4-0.7-0.5-1.4-0.5-2.2c0-0.2,0.1-0.4,0.1-0.6c0.1-0.6-0.1-1.2-0.4-1.8
					c-0.1-0.2-0.3-0.4-0.3-0.6c0.2,0.1,0.3,0.3,0.5,0.5c0.5,0.5,0.7,1.1,0.7,1.9c0,0.1,0,0.3,0,0.4c0,0.8,0.4,1.5,0.9,2.1
					c0.1,0.1,0.2,0.1,0.2,0.1c0.2-0.1,0.5-0.1,0.8-0.3c0.2,0,0.2-0.1,0.3-0.3c0.3-1.9,0.6-3.8,0.9-5.6c0.1-0.5,0.2-1,0.3-1.4
					c0,0.4,0,0.7,0,1.1c0,1.9,0,3.9,0,5.8c0,0.1,0,0.2,0,0.2c0,0.4,0,0.8,0,1.1c0,0.8,0,1.7,0,2.5c0,0.1,0,0.1,0,0.2
					c0,2.5,0,5,0,7.4c0,0.1,0,0.2,0,0.3c0,0,0,0,0,0c-1.3,0.2-2.5,0.1-3.7-0.4c0.1,0.2,0.3,0.1,0.3,0.3c-0.7,0.5-1.4,1-2,1.4
					c-1.2,0.9-2.5,1.8-3.7,2.6c0,0-0.1,0-0.1,0.1c0,0,0,0,0,0c0,0,0-0.1,0-0.1l0,0c0,0,0.1,0,0.1,0c0.4-0.4,0.8-0.8,1.1-1.1
					c0.1-0.1,0.2-0.2,0.3-0.3c0.4-0.3,0.7-0.7,1-1c0.3-0.3,0.6-0.6,0.9-0.9c0.4-0.5,0.9-0.9,1.4-1.3c0.1-0.1,0.1-0.1,0-0.2
					C-125.9,472.8-126.2,472.5-126.4,472.2z"/>
				<path id="XMLID_432_" fill="#F9B328" d="M-121.1,474.1c0,0.3,0,0.6,0,0.9c0,0.1,0,0.1,0,0.2c0,2.2,0,4.4,0,6.7
					c0,0.1,0,0.2,0,0.3c-0.1-0.8-0.3-1.7-0.4-2.5c-0.3-1.5-0.5-3-0.8-4.6c0-0.2-0.1-0.3-0.3-0.3c-0.2-0.1-0.4-0.1-0.6-0.2
					c-0.3-0.1-0.4-0.1-0.3,0.2c0,0,0,0.1,0,0.1c-0.1,0.4-0.2,0.8-0.4,1.1c-0.1,0.3-0.3,0.6-0.6,0.8c-0.2,0.2-0.4,0.3-0.6,0.5
					c-0.4,0.5-0.5,1.1-0.5,1.7c0,0.1,0,0.2-0.1,0.3c-0.1-0.4-0.2-0.8-0.2-1.3c0.1-0.5,0.3-1,0.7-1.3c0.4-0.3,0.6-0.7,0.7-1.2
					c0.1-0.4,0.1-0.9,0.1-1.3c0-0.2-0.1-0.3-0.2-0.3c0-0.1-0.2-0.1-0.3-0.3C-123.6,474.2-122.4,474.3-121.1,474.1z"/>
				<path id="XMLID_431_" fill="#F9B328" d="M-124.6,463.5c-0.3,0.2-0.6,0.4-0.9,0.7c-0.1,0.1-0.1,0.1-0.2,0
					c-0.2-0.2-0.5-0.4-0.7-0.7c-0.1-0.1-0.2-0.2-0.3-0.3c-0.5-0.5-1-1-1.5-1.5c-0.6-0.6-1.2-1.2-1.8-1.9c-0.1-0.1-0.3-0.3-0.4-0.4
					c0,0-0.1,0-0.1,0c0,0,0,0,0,0c0,0,0,0,0,0l0,0c0,0,0-0.1,0-0.1c0.2,0.1,0.4,0.2,0.5,0.4c1.7,1.2,3.5,2.5,5.2,3.7
					C-124.7,463.4-124.7,463.5-124.6,463.5z"/>
				<path id="XMLID_430_" fill="#F9B328" d="M-126.4,472.2c0.2,0.3,0.5,0.6,0.7,0.9c0.1,0.1,0.1,0.1,0,0.2c-0.5,0.4-0.9,0.9-1.4,1.3
					c-0.3,0.3-0.6,0.6-0.9,0.9c-0.3,0.3-0.7,0.7-1,1c-0.1,0.1-0.2,0.2-0.3,0.3c-0.4,0.4-0.8,0.8-1.1,1.1c0,0-0.1,0-0.1,0
					c0.5-0.7,0.9-1.3,1.4-2C-128.2,474.8-127.3,473.5-126.4,472.2z"/>
				<path id="XMLID_429_" fill="#F9B328" d="M-127.3,467.5c0,0.4-0.1,0.7-0.1,1.1c0,0.1,0,0.1-0.1,0.1c0,0-0.1,0-0.1,0
					c-2.2,0-4.4,0-6.6,0c-0.1,0-0.2,0-0.3,0c0.9-0.2,1.9-0.3,2.8-0.5C-130.2,468-128.8,467.8-127.3,467.5
					C-127.4,467.5-127.3,467.5-127.3,467.5z"/>
				<path id="XMLID_428_" fill="#FEC829" d="M-125.7,479.4c0.1-0.1,0.1-0.2,0.1-0.3c-0.1-0.6,0.1-1.2,0.5-1.7
					c0.2-0.2,0.4-0.4,0.6-0.5c0.3-0.2,0.5-0.5,0.6-0.8c0.2-0.4,0.3-0.7,0.4-1.1c0,0,0-0.1,0-0.1c0-0.3,0-0.3,0.3-0.2
					c0.2,0.1,0.4,0.1,0.6,0.2c-0.2,0.7-0.5,1.4-1.1,1.9c-0.1,0.1-0.3,0.3-0.4,0.3c-0.8,0.4-1.2,1.1-1.4,2c0,0.2-0.1,0.3-0.1,0.5
					c0,0,0,0,0,0C-125.7,479.5-125.6,479.5-125.7,479.4z"/>
				<path id="XMLID_427_" fill="#F9B328" d="M-122.6,462.6c-0.2,0.1-0.5,0.1-0.8,0.3c-0.1,0-0.2,0-0.2-0.1c-0.5-0.6-0.8-1.3-0.9-2.1
					c0-0.1,0-0.3,0-0.4c0.1-0.7-0.1-1.4-0.7-1.9c-0.2-0.2-0.3-0.3-0.5-0.5l0,0c0,0,0,0,0-0.1c0.3,0.2,0.6,0.3,0.8,0.5
					c0.6,0.5,0.8,1.1,0.8,1.8c0,0.3,0,0.6,0.1,0.8C-123.6,461.7-123.2,462.2-122.6,462.6z"/>
				<path id="XMLID_426_" fill="#F9B328" d="M-126.5,465.5c-0.1,0.3-0.3,0.5-0.4,0.8c0,0.1-0.1,0.1-0.2,0.1c-0.5,0-0.9-0.2-1.3-0.4
					c-0.3-0.1-0.7-0.3-0.9-0.6c-0.2-0.3-0.4-0.5-0.6-0.6c-0.3-0.2-0.7-0.4-1.2-0.4c-0.3,0-0.5,0-0.8,0c0.5-0.1,1-0.3,1.6-0.2
					c0.4,0.1,0.8,0.3,1.1,0.6c0.4,0.5,0.8,0.6,1.4,0.7C-127.4,465.5-127,465.6-126.5,465.5z"/>
				<path id="XMLID_425_" fill="#F9B328" d="M-127.2,470.2c0.1,0.2,0.1,0.4,0.2,0.6c0.1,0.4,0.1,0.4-0.2,0.6c-0.5,0.3-1,0.5-1.6,0.6
					c-0.2,0-0.4,0-0.6,0c-0.8-0.1-1.4,0.1-2,0.7c-0.1,0.1-0.2,0.3-0.4,0.3c0.4-0.8,0.9-1.3,1.8-1.5c0.1,0,0.2,0,0.3,0
					c0.7,0.1,1.3-0.2,1.8-0.6C-127.7,470.8-127.4,470.5-127.2,470.2z"/>
				<path id="XMLID_424_" fill="#FEC829" d="M-130.4,478.1c0,0-0.1,0.1-0.2,0.1c0-0.1,0-0.1,0-0.1
					C-130.5,478.1-130.5,478.1-130.4,478.1C-130.4,478.1-130.4,478.1-130.4,478.1z"/>
				<path id="XMLID_423_" fill="#FEC829" d="M-130.5,459.4C-130.5,459.4-130.5,459.4-130.5,459.4c-0.1,0.1-0.1,0-0.1-0.1
					C-130.5,459.2-130.5,459.3-130.5,459.4z"/>
				<path id="XMLID_422_" fill="#F9B328" d="M-131.9,473.1c0,0,0,0.1,0,0.1l0,0c0,0,0,0-0.1,0C-131.9,473.2-131.9,473.1-131.9,473.1
					z"/>
				<path id="XMLID_421_" fill="#FEC829" d="M-131.9,473.2C-131.9,473.2-131.9,473.2-131.9,473.2
					C-131.9,473.2-131.9,473.3-131.9,473.2C-132,473.3-132,473.2-131.9,473.2z"/>
				<path id="XMLID_420_" fill="#F9B328" d="M-130.5,478.1C-130.5,478.1-130.5,478.1-130.5,478.1
					C-130.5,478.1-130.5,478-130.5,478.1C-130.5,478-130.5,478.1-130.5,478.1z"/>
				<path id="XMLID_419_" fill="#FEC829" d="M-125.6,457.9C-125.6,458-125.6,458-125.6,457.9C-125.6,458-125.6,458-125.6,457.9
					C-125.6,457.9-125.6,457.9-125.6,457.9z"/>
				<path id="XMLID_418_" fill="#FEC829" d="M-130.5,459.4C-130.5,459.4-130.5,459.5-130.5,459.4
					C-130.5,459.5-130.5,459.5-130.5,459.4z"/>
				<path id="XMLID_417_" fill="#FEC829" d="M-115.9,465.3c0.1,0.2,0.1,0.2,0.3,0.1c0.7-0.4,1.4-0.5,2.2-0.5c0.2,0,0.4,0.1,0.6,0.1
					c0.6,0.1,1.2-0.1,1.8-0.4c0.2-0.1,0.4-0.2,0.6-0.3c0,0,0,0.1,0,0.1l0,0c-0.2,0.1-0.3,0.2-0.4,0.3c-0.6,0.5-1.2,0.8-2,0.7
					c-0.2,0-0.4-0.1-0.6,0c-0.6,0.1-1.1,0.3-1.6,0.6c-0.3,0.2-0.3,0.3-0.2,0.6c0.1,0.2,0.1,0.4,0.2,0.6c0,0.2,0.1,0.2,0.3,0.3
					c2.3,0.4,4.7,0.8,7,1.2c0,0,0.1,0,0.1,0c0,0-0.1,0-0.1,0c-0.1-0.1-0.2,0-0.3,0c-2.2,0-4.4,0-6.6,0c0,0-0.1,0-0.1,0
					c-0.1,0-0.1,0-0.1,0.1c0,0.4-0.1,0.7-0.1,1.1c-0.1,0.2-0.1,0.2,0.1,0.3c0.8,0.3,1.5,0.6,1.9,1.3c0.6,0.9,1.4,1.4,2.4,1.6
					c0.1,0,0.1,0,0.2,0c0,0,0,0,0,0c0,0,0,0-0.1,0c-0.3,0-0.5,0-0.8,0c-0.4,0-0.8-0.2-1.2-0.4c-0.3-0.2-0.5-0.4-0.6-0.6
					c-0.2-0.3-0.5-0.5-0.9-0.6c-0.4-0.2-0.8-0.4-1.3-0.4c-0.1,0-0.1,0-0.2,0.1c-0.1,0.3-0.3,0.5-0.4,0.8c-0.1,0.1-0.1,0.2,0,0.4
					c1.3,1.8,2.5,3.6,3.8,5.4c0.1,0.1,0.1,0.2,0.2,0.3c0,0-0.1,0-0.1,0c-0.1-0.1-0.3-0.3-0.4-0.4c-0.6-0.6-1.2-1.2-1.8-1.9
					c-0.5-0.5-1-1-1.5-1.5c-0.1-0.1-0.2-0.2-0.3-0.3c-0.2-0.3-0.4-0.5-0.7-0.7c-0.1-0.1-0.1-0.1-0.2,0c-0.3,0.3-0.6,0.5-0.9,0.7
					c-0.2,0.1-0.2,0.1-0.1,0.3c0.4,0.7,0.5,1.4,0.5,2.2c0,0.2-0.1,0.4-0.1,0.6c-0.1,0.6,0.1,1.2,0.4,1.8c0.1,0.2,0.3,0.4,0.3,0.6
					c-0.2-0.1-0.3-0.3-0.5-0.5c-0.5-0.5-0.7-1.1-0.7-1.9c0-0.1,0-0.3,0-0.4c0-0.8-0.4-1.5-0.9-2.1c-0.1-0.1-0.2-0.1-0.2-0.1
					c-0.2,0.1-0.5,0.1-0.8,0.3c-0.2,0-0.2,0.1-0.3,0.3c-0.3,1.9-0.6,3.8-0.9,5.6c-0.1,0.5-0.2,1-0.3,1.4c0-0.4,0-0.7,0-1.1
					c0-1.9,0-3.9,0-5.8c0-0.1,0-0.2,0-0.2c0-0.4,0-0.8,0-1.1c0-0.8,0-1.7,0-2.5c0-0.1,0-0.1,0-0.2c0-2.5,0-5,0-7.4
					c0-0.1,0-0.2,0-0.3c0,0,0,0,0,0c1.3-0.2,2.5-0.1,3.7,0.4c-0.1-0.2-0.3-0.1-0.3-0.3c0.7-0.5,1.4-1,2-1.4c1.2-0.9,2.5-1.8,3.7-2.6
					c0,0,0.1,0,0.1-0.1c0,0,0,0,0,0c0,0,0,0.1,0,0.1c0,0,0,0,0,0c0,0-0.1,0-0.1,0c-0.4,0.4-0.8,0.8-1.1,1.1
					c-0.1,0.1-0.2,0.2-0.3,0.3c-0.4,0.3-0.7,0.7-1,1c-0.3,0.3-0.6,0.6-0.9,0.9c-0.4,0.5-0.9,0.9-1.4,1.3c-0.1,0.1-0.1,0.1,0,0.2
					C-116.4,464.7-116.1,465-115.9,465.3z"/>
				<path id="XMLID_413_" fill="#F9B328" d="M-121.1,463.4c0-0.3,0-0.6,0-0.9c0-0.1,0-0.1,0-0.2c0-2.2,0-4.4,0-6.7
					c0-0.1,0-0.2,0-0.3c0.1,0.8,0.3,1.7,0.4,2.5c0.3,1.5,0.5,3,0.8,4.6c0,0.2,0.1,0.3,0.3,0.3c0.2,0.1,0.4,0.1,0.6,0.2
					c0.3,0.1,0.4,0.1,0.3-0.2c0,0,0-0.1,0-0.1c0.1-0.4,0.2-0.8,0.4-1.1c0.1-0.3,0.3-0.6,0.6-0.8c0.2-0.2,0.4-0.3,0.6-0.5
					c0.4-0.5,0.5-1.1,0.5-1.7c0-0.1,0-0.2,0.1-0.3c0.1,0.4,0.2,0.8,0.2,1.3c-0.1,0.5-0.3,1-0.7,1.3c-0.4,0.3-0.6,0.7-0.7,1.2
					c-0.1,0.4-0.1,0.9-0.1,1.3c0,0.2,0.1,0.3,0.2,0.3c0,0.1,0.2,0.1,0.3,0.3C-118.6,463.3-119.9,463.2-121.1,463.4z"/>
				<path id="XMLID_411_" fill="#F9B328" d="M-117.7,474c0.3-0.2,0.6-0.4,0.9-0.7c0.1-0.1,0.1-0.1,0.2,0c0.2,0.2,0.5,0.4,0.7,0.7
					c0.1,0.1,0.2,0.2,0.3,0.3c0.5,0.5,1,1,1.5,1.5c0.6,0.6,1.2,1.2,1.8,1.9c0.1,0.1,0.3,0.3,0.4,0.4c0,0,0.1,0,0.1,0l0,0
					c0,0,0,0,0,0l0,0c0,0,0,0.1,0,0.1c-0.2-0.1-0.4-0.2-0.5-0.4c-1.7-1.2-3.5-2.5-5.2-3.7C-117.6,474.1-117.6,474-117.7,474z"/>
				<path id="XMLID_410_" fill="#F9B328" d="M-115.9,465.3c-0.2-0.3-0.5-0.6-0.7-0.9c-0.1-0.1-0.1-0.1,0-0.2
					c0.5-0.4,0.9-0.9,1.4-1.3c0.3-0.3,0.6-0.6,0.9-0.9c0.3-0.3,0.7-0.7,1-1c0.1-0.1,0.2-0.2,0.3-0.3c0.4-0.4,0.8-0.8,1.1-1.1
					c0,0,0.1,0,0.1,0c-0.5,0.7-0.9,1.3-1.4,2C-114.1,462.7-115,464-115.9,465.3z"/>
				<path id="XMLID_407_" fill="#F9B328" d="M-115,470c0-0.4,0.1-0.7,0.1-1.1c0-0.1,0-0.1,0.1-0.1c0,0,0.1,0,0.1,0
					c2.2,0,4.4,0,6.6,0c0.1,0,0.2,0,0.3,0c-0.9,0.2-1.9,0.3-2.8,0.5C-112.1,469.5-113.5,469.7-115,470C-114.9,470-115,470-115,470z"
					/>
				<path id="XMLID_406_" fill="#FEC829" d="M-116.6,458.1c-0.1,0.1-0.1,0.2-0.1,0.3c0.1,0.6-0.1,1.2-0.5,1.7
					c-0.2,0.2-0.4,0.4-0.6,0.5c-0.3,0.2-0.5,0.5-0.6,0.8c-0.2,0.4-0.3,0.7-0.4,1.1c0,0,0,0.1,0,0.1c0,0.3,0,0.3-0.3,0.2
					c-0.2-0.1-0.4-0.1-0.6-0.2c0.2-0.7,0.5-1.4,1.1-1.9c0.1-0.1,0.3-0.3,0.4-0.3c0.8-0.4,1.2-1.1,1.4-2c0-0.2,0.1-0.3,0.1-0.5
					c0,0,0,0,0,0C-116.6,458-116.6,458-116.6,458.1z"/>
				<path id="XMLID_405_" fill="#F9B328" d="M-119.7,474.9c0.2-0.1,0.5-0.1,0.8-0.3c0.1,0,0.2,0,0.2,0.1c0.5,0.6,0.8,1.3,0.9,2.1
					c0,0.1,0,0.3,0,0.4c-0.1,0.7,0.1,1.4,0.7,1.9c0.2,0.2,0.3,0.3,0.5,0.5l0,0c0,0,0,0,0,0.1c-0.3-0.2-0.6-0.3-0.8-0.5
					c-0.6-0.5-0.8-1.1-0.8-1.8c0-0.3,0-0.6-0.1-0.8C-118.7,475.8-119.1,475.3-119.7,474.9z"/>
				<path id="XMLID_404_" fill="#F9B328" d="M-115.8,472c0.1-0.3,0.3-0.5,0.4-0.8c0-0.1,0.1-0.1,0.2-0.1c0.5,0,0.9,0.2,1.3,0.4
					c0.3,0.1,0.7,0.3,0.9,0.6c0.2,0.3,0.4,0.5,0.6,0.6c0.3,0.2,0.7,0.4,1.2,0.4c0.3,0,0.5,0,0.8,0c-0.5,0.1-1,0.3-1.6,0.2
					c-0.4-0.1-0.8-0.3-1.1-0.6c-0.4-0.5-0.8-0.6-1.4-0.7C-114.9,472-115.3,471.9-115.8,472z"/>
				<path id="XMLID_403_" fill="#F9B328" d="M-115,467.3c-0.1-0.2-0.1-0.4-0.2-0.6c-0.1-0.4-0.1-0.4,0.2-0.6c0.5-0.3,1-0.5,1.6-0.6
					c0.2,0,0.4,0,0.6,0c0.8,0.1,1.4-0.1,2-0.7c0.1-0.1,0.2-0.3,0.4-0.3c-0.4,0.8-0.9,1.3-1.8,1.5c-0.1,0-0.2,0-0.3,0
					c-0.7-0.1-1.3,0.2-1.8,0.6C-114.6,466.7-114.8,467-115,467.3z"/>
				<path id="XMLID_402_" fill="#FEC829" d="M-111.8,459.4c0,0,0.1-0.1,0.2-0.1c0,0.1,0,0.1,0,0.1
					C-111.7,459.4-111.8,459.4-111.8,459.4C-111.8,459.4-111.8,459.4-111.8,459.4z"/>
				<path id="XMLID_401_" fill="#FEC829" d="M-111.8,478.1C-111.8,478.1-111.8,478.1-111.8,478.1c0.1-0.1,0.1,0,0.1,0.1
					C-111.7,478.3-111.7,478.2-111.8,478.1z"/>
				<path id="XMLID_400_" fill="#F9B328" d="M-110.4,473.1c0,0,0,0.1,0,0.1l0,0c0,0,0,0,0.1,0C-110.3,473.2-110.3,473.1-110.4,473.1
					z"/>
				<path id="XMLID_399_" fill="#FEC829" d="M-110.3,473.2C-110.3,473.2-110.3,473.2-110.3,473.2
					C-110.3,473.2-110.3,473.3-110.3,473.2C-110.3,473.3-110.3,473.2-110.3,473.2z"/>
				<path id="XMLID_398_" fill="#F9B328" d="M-111.8,459.4C-111.8,459.4-111.7,459.4-111.8,459.4
					C-111.7,459.4-111.8,459.5-111.8,459.4C-111.8,459.5-111.8,459.4-111.8,459.4z"/>
				<path id="XMLID_397_" fill="#FEC829" d="M-116.7,479.6C-116.7,479.5-116.7,479.5-116.7,479.6
					C-116.7,479.5-116.6,479.5-116.7,479.6C-116.7,479.6-116.7,479.6-116.7,479.6z"/>
				<path id="XMLID_396_" fill="#FEC829" d="M-111.8,478.1C-111.8,478.1-111.8,478-111.8,478.1C-111.8,478-111.8,478-111.8,478.1z"
					/>
				<circle id="XMLID_395_" fill="#F9B328" cx="-121.2" cy="468.8" r="6.3"/>
				<circle id="XMLID_394_" fill="#FEC829" cx="-121.8" cy="468.3" r="5.7"/>
			</g>
			<path id="XMLID_392_" fill="#FDFEFE" d="M-92.1,468.9c2.2-0.7,4.4-1.4,6.6-2.1c0.4-0.1,0.6,0,0.8,0.4c0.2,0.8-0.3,1.5-1.2,1.5
				c-0.2,0-0.2,0.1-0.2,0.3c0.1,1.3-0.8,2.3-2.1,2.3c-0.3,0-0.2,0.2-0.2,0.3c0.2,1.1-0.1,2-0.8,2.8c-1.6,1.9-4.7,1.3-5.6-0.9
				c-0.1-0.2-0.1-0.3-0.3-0.1c-0.8,0.7-1.7,0.8-2.6,0.3c-0.9-0.5-1.4-1.2-1.4-2.3c0-0.3,0.1-0.4,0.4-0.5
				C-96.6,470.3-94.3,469.6-92.1,468.9z"/>
			<path id="XMLID_391_" fill="#FDFEFE" d="M-142.3,469.5c1.2,0.3,2.3,0.6,3.5,0.8c0.2,0.1,0.3,0.2,0.2,0.4
				c-0.1,0.4-0.6,0.6-0.9,0.4c-0.1-0.1-0.1,0-0.2,0.1c-0.3,0.6-1,0.8-1.6,0.5c-0.1-0.1-0.2,0-0.2,0.1c-0.2,0.5-0.6,0.9-1.1,1
				c-1.2,0.4-2.4-0.7-2.2-1.9c0-0.1,0-0.1-0.1-0.1c-0.5,0.1-1-0.1-1.3-0.6c-0.3-0.5-0.3-0.9,0-1.4c0.1-0.1,0.2-0.2,0.3-0.1
				C-144.6,469-143.5,469.3-142.3,469.5z"/>
			<polygon id="XMLID_390_" fill="#FEC829" points="-134.5,318.9 -135,320.1 -134.3,321.2 -135.5,321.1 -136.3,322.1 -136.7,320.8 
				-137.9,320.4 -136.8,319.7 -136.7,318.4 -135.7,319.2 			"/>
			<polygon id="XMLID_389_" fill="#FEC829" points="-140.9,328.7 -140.3,330.4 -138.6,331 -140.1,332 -140,333.9 -141.5,332.8 
				-143.2,333.4 -142.7,331.6 -143.8,330.2 -141.9,330.2 			"/>
			<polygon id="XMLID_388_" fill="#FEC829" points="-155.1,325.2 -154.5,325.6 -153.8,325.3 -154,326 -153.4,326.6 -154.2,326.7 
				-154.6,327.3 -154.9,326.6 -155.7,326.4 -155.1,325.9 			"/>
			<polygon id="XMLID_387_" fill="#FEC829" points="-101,328.5 -101.4,329.9 -100.5,331 -102,331 -102.8,332.2 -103.2,330.8 
				-104.6,330.4 -103.4,329.6 -103.5,328.2 -102.3,329 			"/>
			<polygon id="XMLID_386_" fill="#FEC829" points="-94.3,323.4 -94,324.3 -93.1,324.6 -93.8,325.1 -93.8,326 -94.6,325.5 
				-95.5,325.8 -95.2,324.9 -95.7,324.2 -94.8,324.2 			"/>
			<polygon id="XMLID_385_" fill="#FEC829" points="-88.1,333.9 -88.5,335.8 -87.2,337.1 -89.1,337.3 -90,338.9 -90.7,337.2 
				-92.6,336.9 -91.2,335.6 -91.4,333.8 -89.8,334.7 			"/>
			<path id="XMLID_384_" fill="#FDFEFE" d="M-106.4,460.1c1.2-0.3,2.5-0.5,3.7-0.8c0.3-0.1,0.4,0,0.4,0.3c0.1,0.4-0.3,0.8-0.7,0.8
				c-0.1,0-0.1,0-0.1,0.1c0,0.7-0.6,1.2-1.3,1.2c-0.2,0-0.1,0.1-0.1,0.2c0,0.6-0.2,1.1-0.6,1.5c-1,0.9-2.7,0.5-3-0.8
				c0-0.1-0.1-0.1-0.2-0.1c-0.5,0.3-1,0.3-1.5,0c-0.5-0.3-0.7-0.8-0.6-1.3c0-0.2,0.1-0.2,0.2-0.3
				C-108.9,460.7-107.6,460.4-106.4,460.1z"/>
			<path id="XMLID_383_" fill="#FDFEFE" d="M-149.6,457.1c0.7,0.3,1.3,0.7,2,1c0.1,0.1,0.2,0.1,0.1,0.3c-0.1,0.2-0.4,0.3-0.6,0.1
				c-0.1-0.1-0.1,0-0.1,0c-0.3,0.3-0.7,0.3-1,0c-0.1-0.1-0.1,0-0.1,0c-0.2,0.3-0.5,0.4-0.8,0.5c-0.8,0.1-1.4-0.8-1.1-1.5
				c0-0.1,0-0.1-0.1-0.1c-0.3,0-0.6-0.2-0.7-0.5c-0.1-0.3,0-0.6,0.2-0.8c0.1-0.1,0.1-0.1,0.2,0
				C-150.9,456.4-150.2,456.7-149.6,457.1z"/>
			<path id="XMLID_312_" fill="#FDFEFE" d="M-87.3,456.2c0.6-0.3,1.2-0.6,1.9-0.9c0.1-0.1,0.2,0,0.2,0.1c0.1,0.2,0,0.5-0.3,0.5
				c-0.1,0-0.1,0-0.1,0.1c0.1,0.4-0.2,0.7-0.5,0.8c-0.1,0-0.1,0.1-0.1,0.1c0.1,0.3,0,0.6-0.1,0.8c-0.4,0.6-1.3,0.6-1.7-0.1
				c0-0.1,0-0.1-0.1,0c-0.2,0.2-0.5,0.3-0.8,0.2c-0.3-0.1-0.4-0.3-0.5-0.6c0-0.1,0-0.1,0.1-0.2C-88.5,456.8-87.9,456.5-87.3,456.2z"
				/>
			<path id="XMLID_311_" fill="#FDFEFE" d="M-131.2,459.2c1,0.2,2.1,0.5,3.1,0.7c0.2,0.1,0.3,0.1,0.2,0.4c-0.1,0.4-0.5,0.5-0.8,0.3
				c-0.1-0.1-0.1,0-0.2,0.1c-0.3,0.5-0.9,0.7-1.4,0.4c-0.1-0.1-0.1,0-0.2,0.1c-0.2,0.5-0.5,0.8-1,0.9c-1.1,0.4-2.2-0.6-2-1.7
				c0-0.1,0-0.1-0.1-0.1c-0.5,0.1-0.9-0.1-1.1-0.5c-0.3-0.4-0.2-0.8,0-1.2c0.1-0.1,0.1-0.1,0.3-0.1
				C-133.3,458.7-132.3,458.9-131.2,459.2z"/>
		</g>
	</g>
</g>
</svg>
